<svg width="150" height="150" viewBox="0 0 150 150" fill="none" xmlns="http://www.w3.org/2000/svg">
<mask id="mask0_747_14451" style="mask-type:alpha" maskUnits="userSpaceOnUse" x="13" y="13" width="124" height="124">
<path d="M137 75C137 109.242 109.242 137 75 137C40.7583 137 13 109.242 13 75C13 40.7583 40.7583 13 75 13C109.242 13 137 40.7583 137 75Z" fill="#F5F6F7"/>
</mask>
<g mask="url(#mask0_747_14451)">
<path d="M137 75C137 109.242 109.242 137 75 137C40.7583 137 13 109.242 13 75C13 40.7583 40.7583 13 75 13C109.242 13 137 40.7583 137 75Z" fill="#F5F6F7"/>
<path d="M10 101H140V137H10V101Z" fill="url(#paint0_linear_747_14451)"/>
<path fill-rule="evenodd" clip-rule="evenodd" d="M74.0336 101.882C81.2049 101.882 88.6699 106.019 94.8005 113.405C98.6741 118.059 103.103 126.184 105.982 133.94C108.231 139.997 109.609 145.685 110.088 150.929C110.338 153.884 109.969 156.691 109.011 159.128C107.212 163.56 103.317 165.998 97.8398 165.998C90.725 165.998 83.3165 161.861 77.0745 154.327C73.2009 149.673 68.7998 141.622 65.92 133.866C63.6984 127.883 62.3207 122.195 61.8415 116.951C61.5915 113.996 61.961 111.189 62.9193 108.752C64.6908 104.246 68.4999 101.882 74.0336 101.882ZM92.9711 152.776C98.4484 152.776 99.7019 146.571 95.012 133.94C90.1301 120.792 84.6413 115.547 79.1075 115.547C73.5173 115.547 72.1704 121.087 77.0797 134.309C81.5503 146.35 87.6632 152.776 92.9711 152.776ZM15.211 115.917H38.5319C38.0106 114.513 37.3446 112.714 36.6758 110.908L36.6757 110.908C35.3295 107.273 33.9718 103.607 33.7597 103.064H44.4884L49.2331 115.843H56.4609L61.0686 128.252H53.8408L67.3072 164.52H56.1832L20.0106 128.843L15.211 115.917ZM43.1137 128.105H31.7074C32.6551 129.049 33.6038 129.993 34.5526 130.936L34.5542 130.938C39.9507 136.305 45.349 141.673 50.5834 147.31C47.9078 140.903 45.4953 134.519 43.1137 128.105ZM125.491 115.917H102.17L106.969 128.843L143.142 164.52H154.266L140.8 128.252H148.027L143.42 115.843H136.192L131.447 103.064H120.718C120.931 103.607 122.288 107.273 123.635 110.908C124.303 112.714 124.969 114.513 125.491 115.917ZM118.666 128.105H130.072C132.454 134.519 134.867 140.903 137.542 147.31C132.308 141.673 126.909 136.305 121.513 130.938C120.563 129.994 119.614 129.05 118.666 128.105Z" fill="url(#paint1_linear_747_14451)" fill-opacity="0.8"/>
<path d="M51 35C51 41.6274 45.6274 47 39 47C32.3726 47 27 41.6274 27 35C27 28.3726 32.3726 23 39 23C45.6274 23 51 28.3726 51 35Z" fill="url(#paint2_linear_747_14451)"/>
</g>
<path d="M74.5677 104.019C81.739 104.019 87.668 100.71 91.056 94.8007C93.2018 91.0777 94.6134 84.5773 94.6134 78.3723C94.6134 73.5265 93.8794 68.9762 92.4112 64.7805C91.5642 62.4167 90.1526 60.1711 88.2891 58.2209C84.8447 54.6752 80.045 52.7251 74.5677 52.7251C67.4528 52.7251 61.5803 56.0344 58.1358 62.0621C55.99 65.7851 54.5784 72.2264 54.5784 78.4314C54.5784 83.2181 55.3124 87.7684 56.7806 91.9641C57.6276 94.3279 59.0393 96.5735 60.9027 98.5237C64.3472 102.128 69.0339 104.019 74.5677 104.019ZM74.6083 63.303C80.0856 63.303 83.643 68.2671 83.643 78.3723C83.643 88.8912 80.1014 93.0869 74.5677 93.0869C68.9774 93.0869 65.5735 88.6548 65.5735 78.0768C65.5735 68.4443 69.3004 63.303 74.6083 63.303Z" fill="url(#paint3_linear_747_14451)"/>
<path d="M10.5342 92.7916C11.2841 92.7916 33.855 92.7916 33.855 92.7916C33.855 96.1754 33.8709 102.424 33.855 103.074H44.5838C44.5838 102.424 44.5838 96.2123 44.5838 92.8507C46.9986 92.8507 51.8115 92.8507 51.8115 92.8507V82.9227C49.4023 82.9227 46.993 82.9227 44.5838 82.9227V53.9071H33.4598L10.5342 82.4499V92.7916ZM33.9115 83.0409H22.5052C26.4977 77.9848 30.556 72.9785 34.2503 67.6762C33.9535 72.8015 33.9115 77.9092 33.9115 83.0409Z" fill="url(#paint4_linear_747_14451)"/>
<path d="M97.4929 92.7916C98.2429 92.7916 120.814 92.7916 120.814 92.7916C120.814 96.1754 120.83 102.424 120.814 103.074H131.542C131.542 102.424 131.542 96.2123 131.542 92.8507C133.957 92.8507 138.77 92.8507 138.77 92.8507V82.9227C136.361 82.9227 133.952 82.9227 131.542 82.9227V53.9071H120.419L97.4929 82.4499V92.7916ZM120.87 83.0409H109.464C113.456 77.9848 117.515 72.9785 121.209 67.6762C120.912 72.8015 120.87 77.9092 120.87 83.0409Z" fill="url(#paint5_linear_747_14451)"/>
<path fill-rule="evenodd" clip-rule="evenodd" d="M103 22C103 20.3431 104.343 19 106 19H126C127.657 19 129 20.3431 129 22C129 23.6569 127.657 25 126 25H106C104.343 25 103 23.6569 103 22ZM95 34.0001C95 32.3432 96.3431 31.0001 98 31.0001H122C123.657 31.0001 125 32.3432 125 34.0001C125 35.657 123.657 37.0001 122 37.0001H98C96.3431 37.0001 95 35.657 95 34.0001ZM107 31.0001H122C120.343 31.0001 119 29.6569 119 28.0001C119 26.3432 120.343 25 122 25H107C108.657 25 110 26.3432 110 28.0001C110 29.6569 108.657 31.0001 107 31.0001Z" fill="#E8EAEE"/>
<defs>
<linearGradient id="paint0_linear_747_14451" x1="81.5" y1="137" x2="82" y2="104" gradientUnits="userSpaceOnUse">
<stop stop-color="#DCDEE2"/>
<stop offset="1" stop-color="#EAEDF0"/>
</linearGradient>
<linearGradient id="paint1_linear_747_14451" x1="91.7504" y1="141.956" x2="95.9051" y2="103.425" gradientUnits="userSpaceOnUse">
<stop stop-color="#DCDEE2" stop-opacity="0"/>
<stop offset="1" stop-color="#B3BAC2" stop-opacity="0.9"/>
</linearGradient>
<linearGradient id="paint2_linear_747_14451" x1="39" y1="23" x2="39" y2="47" gradientUnits="userSpaceOnUse">
<stop stop-color="#ADB3BC"/>
<stop offset="1" stop-color="#E7E9ED"/>
</linearGradient>
<linearGradient id="paint3_linear_747_14451" x1="74.5959" y1="52.7251" x2="74.5959" y2="104.019" gradientUnits="userSpaceOnUse">
<stop stop-color="#DCDEE2"/>
<stop offset="1" stop-color="#B0B7BF"/>
</linearGradient>
<linearGradient id="paint4_linear_747_14451" x1="31.1729" y1="53.9071" x2="31.1729" y2="103.074" gradientUnits="userSpaceOnUse">
<stop stop-color="#DCDEE2"/>
<stop offset="1" stop-color="#B0B7BF"/>
</linearGradient>
<linearGradient id="paint5_linear_747_14451" x1="118.132" y1="53.9071" x2="118.132" y2="103.074" gradientUnits="userSpaceOnUse">
<stop stop-color="#DCDEE2"/>
<stop offset="1" stop-color="#B0B7BF"/>
</linearGradient>
</defs>
</svg>
